<?xml version="1.0" encoding="UTF-8" standalone="no"?>
<!DOCTYPE svg PUBLIC "-//W3C//DTD SVG 1.1//EN"
 "http://www.w3.org/Graphics/SVG/1.1/DTD/svg11.dtd">
<!-- Generated by graphviz version 2.43.0 (0)
 -->
<!-- Title: Local w/o K8s Pages: 1 -->
<svg width="810pt" height="1275pt"
 viewBox="0.00 0.00 809.50 1275.00" xmlns="http://www.w3.org/2000/svg" xmlns:xlink="http://www.w3.org/1999/xlink">
<g id="graph0" class="graph" transform="scale(1 1) rotate(0) translate(144 1131)">
<title>Local w/o K8s</title>
<polygon fill="white" stroke="transparent" points="-144,144 -144,-1131 665.5,-1131 665.5,144 -144,144"/>
<text text-anchor="middle" x="260.75" y="-9" font-family="Sans-Serif" font-size="15.00" fill="#2d3436">Local w/o K8s</text>
<g id="clust1" class="cluster">
<title>cluster_training</title>
<path fill="#e5f5fd" stroke="#aeb6be" d="M407.5,-423C407.5,-423 501.5,-423 501.5,-423 507.5,-423 513.5,-429 513.5,-435 513.5,-435 513.5,-967 513.5,-967 513.5,-973 507.5,-979 501.5,-979 501.5,-979 407.5,-979 407.5,-979 401.5,-979 395.5,-973 395.5,-967 395.5,-967 395.5,-435 395.5,-435 395.5,-429 401.5,-423 407.5,-423"/>
<text text-anchor="middle" x="426.5" y="-965.4" font-family="Sans-Serif" font-size="12.00" fill="#2d3436">training</text>
</g>
<g id="clust2" class="cluster">
<title>cluster_docker compose</title>
<path fill="#e5f5fd" stroke="#aeb6be" d="M121.5,-33C121.5,-33 375.5,-33 375.5,-33 381.5,-33 387.5,-39 387.5,-45 387.5,-45 387.5,-585 387.5,-585 387.5,-591 381.5,-597 375.5,-597 375.5,-597 121.5,-597 121.5,-597 115.5,-597 109.5,-591 109.5,-585 109.5,-585 109.5,-45 109.5,-45 109.5,-39 115.5,-33 121.5,-33"/>
<text text-anchor="middle" x="167.5" y="-583.4" font-family="Sans-Serif" font-size="12.00" fill="#2d3436">docker compose</text>
</g>
<g id="clust3" class="cluster">
<title>cluster_dashboard</title>
<path fill="#ebf3e7" stroke="#aeb6be" d="M129.5,-41C129.5,-41 223.5,-41 223.5,-41 229.5,-41 235.5,-47 235.5,-53 235.5,-53 235.5,-394 235.5,-394 235.5,-400 229.5,-406 223.5,-406 223.5,-406 129.5,-406 129.5,-406 123.5,-406 117.5,-400 117.5,-394 117.5,-394 117.5,-53 117.5,-53 117.5,-47 123.5,-41 129.5,-41"/>
<text text-anchor="middle" x="157.5" y="-392.4" font-family="Sans-Serif" font-size="12.00" fill="#2d3436">dashboard</text>
</g>
<g id="clust4" class="cluster">
<title>cluster_model server</title>
<path fill="#ebf3e7" stroke="#aeb6be" d="M273.5,-232C273.5,-232 367.5,-232 367.5,-232 373.5,-232 379.5,-238 379.5,-244 379.5,-244 379.5,-394 379.5,-394 379.5,-400 373.5,-406 367.5,-406 367.5,-406 273.5,-406 273.5,-406 267.5,-406 261.5,-400 261.5,-394 261.5,-394 261.5,-244 261.5,-244 261.5,-238 267.5,-232 273.5,-232"/>
<text text-anchor="middle" x="309.5" y="-392.4" font-family="Sans-Serif" font-size="12.00" fill="#2d3436">model server</text>
</g>
<!-- 8e21a93de31b45aeb021e68059370822 -->
<g id="node1" class="node">
<title>8e21a93de31b45aeb021e68059370822</title>
<image xlink:href="/home/arbin/Desktop/dog-breed/dog-breed-classification-ml/venv/lib/python3.8/site-packages/resources/onprem/client/user.png" width="101px" height="101px" preserveAspectRatio="xMinYMin meet" x="0" y="-550"/>
<text text-anchor="middle" x="50.5" y="-434.6" font-family="Sans-Serif" font-size="13.00" fill="#2d3436">user</text>
</g>
<!-- a7398b38c81d460280f3daafaa0363ec -->
<g id="node5" class="node">
<title>a7398b38c81d460280f3daafaa0363ec</title>
<image xlink:href="resources/streamlit.png" width="101px" height="101px" preserveAspectRatio="xMinYMin meet" x="126" y="-359"/>
<text text-anchor="middle" x="176.5" y="-243.6" font-family="Sans-Serif" font-size="13.00" fill="#2d3436">UI</text>
</g>
<!-- 8e21a93de31b45aeb021e68059370822&#45;&gt;a7398b38c81d460280f3daafaa0363ec -->
<g id="edge8" class="edge">
<title>8e21a93de31b45aeb021e68059370822&#45;&gt;a7398b38c81d460280f3daafaa0363ec</title>
<path fill="none" stroke="green" d="M101.27,-499C131.49,-499 164,-499 164,-499 164,-499 164,-387.01 164,-387.01"/>
<polygon fill="green" stroke="green" points="167.5,-387.01 164,-377.01 160.5,-387.01 167.5,-387.01"/>
</g>
<!-- aa74e7a63d5e4b6787a81718fcda6006 -->
<g id="node2" class="node">
<title>aa74e7a63d5e4b6787a81718fcda6006</title>
<image xlink:href="/home/arbin/Desktop/dog-breed/dog-breed-classification-ml/venv/lib/python3.8/site-packages/resources/onprem/network/internet.png" width="101px" height="101px" preserveAspectRatio="xMinYMin meet" x="404" y="-932"/>
<text text-anchor="middle" x="454.5" y="-816.6" font-family="Sans-Serif" font-size="13.00" fill="#2d3436">source</text>
</g>
<!-- 99bc98f032004d458d9d2b122f871ea4 -->
<g id="node3" class="node">
<title>99bc98f032004d458d9d2b122f871ea4</title>
<image xlink:href="resources/tf.png" width="101px" height="108.07px" preserveAspectRatio="xMinYMin meet" x="404" y="-744.535"/>
<text text-anchor="middle" x="454.5" y="-625.6" font-family="Sans-Serif" font-size="13.00" fill="#2d3436">trainer</text>
</g>
<!-- aa74e7a63d5e4b6787a81718fcda6006&#45;&gt;99bc98f032004d458d9d2b122f871ea4 -->
<g id="edge5" class="edge">
<title>aa74e7a63d5e4b6787a81718fcda6006&#45;&gt;99bc98f032004d458d9d2b122f871ea4</title>
<path fill="none" stroke="orange" stroke-width="2" d="M454.5,-812.81C454.5,-812.81 454.5,-769.22 454.5,-769.22"/>
<polygon fill="orange" stroke="orange" stroke-width="2" points="458,-769.22 454.5,-759.22 451,-769.22 458,-769.22"/>
</g>
<!-- f5f738e3d41b4f7fb7e47921e16ea629 -->
<g id="node4" class="node">
<title>f5f738e3d41b4f7fb7e47921e16ea629</title>
<image xlink:href="resources/model.png" width="101px" height="101px" preserveAspectRatio="xMinYMin meet" x="404" y="-550"/>
<text text-anchor="middle" x="454.5" y="-434.6" font-family="Sans-Serif" font-size="13.00" fill="#2d3436">model</text>
</g>
<!-- 99bc98f032004d458d9d2b122f871ea4&#45;&gt;f5f738e3d41b4f7fb7e47921e16ea629 -->
<g id="edge6" class="edge">
<title>99bc98f032004d458d9d2b122f871ea4&#45;&gt;f5f738e3d41b4f7fb7e47921e16ea629</title>
<path fill="none" stroke="orange" stroke-width="2" d="M454.5,-621.81C454.5,-621.81 454.5,-578.22 454.5,-578.22"/>
<polygon fill="orange" stroke="orange" stroke-width="2" points="458,-578.22 454.5,-568.22 451,-578.22 458,-578.22"/>
</g>
<!-- 53803e4e13614ea2bc9dd7bbbfa84792 -->
<g id="node6" class="node">
<title>53803e4e13614ea2bc9dd7bbbfa84792</title>
<image xlink:href="resources/seldon.png" width="101px" height="30.5447px" preserveAspectRatio="xMinYMin meet" x="270" y="-323.772"/>
<text text-anchor="middle" x="320.5" y="-243.6" font-family="Sans-Serif" font-size="13.00" fill="#2d3436">serve</text>
</g>
<!-- f5f738e3d41b4f7fb7e47921e16ea629&#45;&gt;53803e4e13614ea2bc9dd7bbbfa84792 -->
<g id="edge7" class="edge">
<title>f5f738e3d41b4f7fb7e47921e16ea629&#45;&gt;53803e4e13614ea2bc9dd7bbbfa84792</title>
<path fill="none" stroke="orange" stroke-width="2" d="M403.99,-499C372.14,-499 337,-499 337,-499 337,-499 337,-387.01 337,-387.01"/>
<polygon fill="orange" stroke="orange" stroke-width="2" points="340.5,-387.01 337,-377.01 333.5,-387.01 340.5,-387.01"/>
</g>
<!-- a7398b38c81d460280f3daafaa0363ec&#45;&gt;53803e4e13614ea2bc9dd7bbbfa84792 -->
<g id="edge1" class="edge">
<title>a7398b38c81d460280f3daafaa0363ec&#45;&gt;53803e4e13614ea2bc9dd7bbbfa84792</title>
<path fill="none" stroke="red" stroke-dasharray="5,2" d="M227.27,-331C227.27,-331 259.7,-331 259.7,-331"/>
<polygon fill="red" stroke="red" points="259.7,-334.5 269.7,-331 259.7,-327.5 259.7,-334.5"/>
</g>
<!-- c2844048bea843d8b53c55f06f350ae5 -->
<g id="node8" class="node">
<title>c2844048bea843d8b53c55f06f350ae5</title>
<image xlink:href="/home/arbin/Desktop/dog-breed/dog-breed-classification-ml/venv/lib/python3.8/site-packages/resources/onprem/client/client.png" width="101px" height="101px" preserveAspectRatio="xMinYMin meet" x="126" y="-168"/>
<text text-anchor="middle" x="176.5" y="-52.6" font-family="Sans-Serif" font-size="13.00" fill="#2d3436">output</text>
</g>
<!-- a7398b38c81d460280f3daafaa0363ec&#45;&gt;c2844048bea843d8b53c55f06f350ae5 -->
<g id="edge9" class="edge">
<title>a7398b38c81d460280f3daafaa0363ec&#45;&gt;c2844048bea843d8b53c55f06f350ae5</title>
<path fill="none" stroke="red" d="M176.5,-239.81C176.5,-239.81 176.5,-196.22 176.5,-196.22"/>
<polygon fill="red" stroke="red" points="180,-196.22 176.5,-186.22 173,-196.22 180,-196.22"/>
</g>
<!-- 53803e4e13614ea2bc9dd7bbbfa84792&#45;&gt;a7398b38c81d460280f3daafaa0363ec -->
<g id="edge2" class="edge">
<title>53803e4e13614ea2bc9dd7bbbfa84792&#45;&gt;a7398b38c81d460280f3daafaa0363ec</title>
<path fill="none" stroke="red" stroke-dasharray="5,2" d="M269.73,-285C269.73,-285 237.3,-285 237.3,-285"/>
<polygon fill="red" stroke="red" points="237.3,-281.5 227.3,-285 237.3,-288.5 237.3,-281.5"/>
</g>
<!-- 8de2d3386fa44661a6ced738a5ebb205 -->
<g id="node7" class="node">
<title>8de2d3386fa44661a6ced738a5ebb205</title>
<image xlink:href="/home/arbin/Desktop/dog-breed/dog-breed-classification-ml/venv/lib/python3.8/site-packages/resources/onprem/container/docker.png" width="101px" height="101px" preserveAspectRatio="xMinYMin meet" x="202" y="-550"/>
<text text-anchor="middle" x="252.5" y="-434.6" font-family="Sans-Serif" font-size="13.00" fill="#2d3436">docker</text>
</g>
<!-- 8de2d3386fa44661a6ced738a5ebb205&#45;&gt;a7398b38c81d460280f3daafaa0363ec -->
<g id="edge4" class="edge">
<title>8de2d3386fa44661a6ced738a5ebb205&#45;&gt;a7398b38c81d460280f3daafaa0363ec</title>
<path fill="none" stroke="blue" d="M214.5,-430.81C214.5,-430.81 214.5,-387.22 214.5,-387.22"/>
<polygon fill="blue" stroke="blue" points="218,-387.22 214.5,-377.22 211,-387.22 218,-387.22"/>
</g>
<!-- 8de2d3386fa44661a6ced738a5ebb205&#45;&gt;53803e4e13614ea2bc9dd7bbbfa84792 -->
<g id="edge3" class="edge">
<title>8de2d3386fa44661a6ced738a5ebb205&#45;&gt;53803e4e13614ea2bc9dd7bbbfa84792</title>
<path fill="none" stroke="blue" d="M286.5,-430.81C286.5,-430.81 286.5,-387.22 286.5,-387.22"/>
<polygon fill="blue" stroke="blue" points="290,-387.22 286.5,-377.22 283,-387.22 290,-387.22"/>
</g>
</g>
</svg>
